<svg xmlns="http://www.w3.org/2000/svg" width="21.258" height="22.144" viewBox="0 0 21.258 22.144">
  <path id="noun-delete-3960831" d="M154.172,55.157v1.772h-7.086V55.157a.886.886,0,0,1,.886-.886h5.315A.886.886,0,0,1,154.172,55.157Zm-8.858,1.772H140V58.7h2.657V71.1a3.543,3.543,0,0,0,3.543,3.543h8.858A3.543,3.543,0,0,0,158.6,71.1V58.7h2.657V56.929h-5.315V55.157a2.657,2.657,0,0,0-2.657-2.657h-5.315a2.657,2.657,0,0,0-2.657,2.657ZM156.829,58.7h-12.4V71.1a1.772,1.772,0,0,0,1.772,1.772h8.858a1.771,1.771,0,0,0,1.771-1.772Zm-9.743,12.4V60.472h1.771V71.1ZM152.4,60.472V71.1h1.772V60.472Z" transform="translate(-140 -52.5)" fill="#b90f0f" fill-rule="evenodd" opacity="0.89"/>
</svg>
