<svg xmlns="http://www.w3.org/2000/svg" width="17.934" height="28.965" viewBox="0 0 17.934 28.965">
  <path id="Path_106333" data-name="Path 106333" d="M18.494,2.55c0-4.345-3.759-5.485-7.18-6.286V-8.974a12.607,12.607,0,0,1,4.714,1.6l1.541-3.79a13.938,13.938,0,0,0-6.255-1.88V-16.4H8.233v3.42C3.364-12.425.991-9.621.991-6.355.991-1.948,4.812-.808,8.233.024V5.17A12.457,12.457,0,0,1,2.255,2.982L.56,6.741A14.605,14.605,0,0,0,8.233,9.206v3.359h3.081V9.114C16.152,8.528,18.494,5.755,18.494,2.55ZM5.952-6.6c0-1.017.647-1.91,2.28-2.28v4.376C6.877-4.937,5.952-5.523,5.952-6.6ZM11.314,5.046V.794c1.325.462,2.219,1.048,2.219,2.126C13.533,3.906,12.855,4.707,11.314,5.046Z" transform="translate(-0.56 16.4)" fill="#fff"/>
</svg>
