<svg xmlns="http://www.w3.org/2000/svg" width="14.704" height="13.293" viewBox="0 0 14.704 13.293">
  <g id="Icon_awesome-file-export" data-name="Icon awesome-file-export" transform="translate(1 1)" fill="none">
    <path d="M8.47,2.689a.528.528,0,0,0-.154-.373L6.156.154A.529.529,0,0,0,5.781,0H5.647V2.823H8.47Zm4.125,4.1L10.484,4.667a.354.354,0,0,0-.6.249V6.352H8.468V7.764H9.879V9.2a.354.354,0,0,0,.6.249l2.111-2.129A.375.375,0,0,0,12.595,6.794Zm-8.36.618V6.705a.354.354,0,0,1,.353-.353H8.47V3.529h-3A.531.531,0,0,1,4.941,3V0H.529A.528.528,0,0,0,0,.529V10.764a.528.528,0,0,0,.529.529H7.941a.528.528,0,0,0,.529-.529v-3H4.588A.354.354,0,0,1,4.235,7.411Z" stroke="none"/>
    <path d="M 0.5293750762939453 -3.814697265625e-06 C 0.2360153198242188 -3.814697265625e-06 -4.76837158203125e-06 0.2360162734985352 -4.76837158203125e-06 0.5293769836425781 L -4.76837158203125e-06 10.76395606994629 C -4.76837158203125e-06 11.05731678009033 0.2360153198242188 11.29333686828613 0.5293750762939453 11.29333686828613 L 7.940625190734863 11.29333686828613 C 8.233985900878906 11.29333686828613 8.469995498657227 11.05731678009033 8.469995498657227 10.76395606994629 L 8.467795372009277 7.764166831970215 L 4.587915420532227 7.764166831970215 C 4.393815040588379 7.764166831970215 4.234994888305664 7.605356216430664 4.234994888305664 7.411246299743652 L 4.234994888305664 6.705416679382324 C 4.234994888305664 6.511316299438477 4.393815040588379 6.35249662399292 4.587915420532227 6.35249662399292 L 8.469995498657227 6.35249662399292 L 8.469995498657227 3.529166698455811 L 5.470205307006836 3.529166698455811 C 5.179055213928223 3.529166698455811 4.940835475921631 3.290946960449219 4.940835475921631 2.999796867370605 L 4.940835475921631 -3.814697265625e-06 L 0.5293750762939453 -3.814697265625e-06 M 5.646665096282959 -3.814697265625e-06 L 5.646665096282959 2.823336601257324 L 8.469995498657227 2.823336601257324 L 8.469995498657227 2.688786506652832 C 8.469995498657227 2.549826622009277 8.41485595703125 2.415276527404785 8.315595626831055 2.31601619720459 L 6.156185150146484 0.1543960571289062 C 6.05693531036377 0.05514621734619141 5.922385215759277 -3.814697265625e-06 5.781215190887451 -3.814697265625e-06 L 5.646665096282959 -3.814697265625e-06 M 10.23553276062012 4.562759876251221 C 10.05374050140381 4.562736034393311 9.87945556640625 4.703372955322266 9.87945556640625 4.916566371917725 L 9.87945556640625 6.35249662399292 L 8.467795372009277 6.35249662399292 L 8.469995498657227 7.764166831970215 L 9.87945556640625 7.764166831970215 L 9.87945556640625 9.202306747436523 C 9.87945556640625 9.517717361450195 10.2610559463501 9.674325942993164 10.48383522033691 9.451546669006348 L 12.5947151184082 7.32301664352417 C 12.74029541015625 7.177446365356445 12.74029541015625 6.939226627349854 12.5947151184082 6.793646335601807 L 10.48383522033691 4.6673264503479 C 10.4116325378418 4.595124244689941 10.3227014541626 4.562771797180176 10.23553276062012 4.562759876251221 M 0.5293750762939453 -1.000003814697266 L 5.940835475921631 -1.000003814697266 L 5.940835475921631 -0.9918708801269531 C 6.28972339630127 -0.9561033248901367 6.612688541412354 -0.8033199310302734 6.863295555114746 -0.5527133941650391 L 9.023065567016602 1.60926628112793 C 9.269225120544434 1.855426788330078 9.424516677856445 2.18408203125 9.461453437805176 2.529166221618652 L 9.469995498657227 2.529166221618652 L 9.469995498657227 3.799623489379883 C 9.687978744506836 3.650265693664551 9.951723098754883 3.562756538391113 10.23549556732178 3.562756538391113 L 10.23572540283203 3.562756538391113 C 10.59548568725586 3.562836647033691 10.93471527099609 3.703996658325195 11.19094562530518 3.960216522216797 L 13.30439567565918 6.08911657333374 C 13.56110572814941 6.345826625823975 13.70389556884766 6.690946578979492 13.70389556884766 7.058336734771729 C 13.70389556884766 7.425736427307129 13.56109523773193 7.770866394042969 13.30179500579834 8.030146598815918 L 11.19387531280518 10.15570640563965 C 10.934645652771 10.41495609283447 10.59533500671387 10.55610656738281 10.23553562164307 10.55610656738281 C 9.951705932617188 10.55610656738281 9.688005447387695 10.4686336517334 9.469995498657227 10.31923294067383 L 9.469995498657227 10.76395606994629 C 9.469995498657227 11.60725688934326 8.78392505645752 12.29333686828613 7.940625190734863 12.29333686828613 L 0.5293750762939453 12.29333686828613 C -0.3139247894287109 12.29333686828613 -1.000004768371582 11.60725688934326 -1.000004768371582 10.76395606994629 L -1.000004768371582 0.5293769836425781 C -1.000004768371582 -0.3139238357543945 -0.3139247894287109 -1.000003814697266 0.5293750762939453 -1.000003814697266 Z" stroke="none" fill="#fff"/>
  </g>
</svg>
