<svg xmlns="http://www.w3.org/2000/svg" width="33.708" height="21.472" viewBox="0 0 33.708 21.472">
  <g id="live" transform="translate(-4.834 0)">
    <path id="Path_106327" data-name="Path 106327" d="M96.666,21.165a1.534,1.534,0,0,0,.306-2.147,13.86,13.86,0,0,1,0-16.562A1.534,1.534,0,1,0,94.519.613a16.943,16.943,0,0,0,0,20.246A1.534,1.534,0,0,0,96.666,21.165Z" transform="translate(-86.328 0)" fill="#fff"/>
    <path id="Path_106328" data-name="Path 106328" d="M361.628,21.164a1.534,1.534,0,0,0,2.147-.306,16.943,16.943,0,0,0,0-20.246,1.534,1.534,0,0,0-2.453,1.842,13.86,13.86,0,0,1,0,16.562,1.534,1.534,0,0,0,.306,2.147Z" transform="translate(-328.589)" fill="#fff"/>
    <path id="Path_106329" data-name="Path 106329" d="M155.937,44.947a1.534,1.534,0,0,0,.119-2.166,7.653,7.653,0,0,1,0-10.223,1.534,1.534,0,1,0-2.285-2.046,10.749,10.749,0,0,0,0,14.316A1.534,1.534,0,0,0,155.937,44.947Z" transform="translate(-140.084 -26.934)" fill="#fff"/>
    <path id="Path_106330" data-name="Path 106330" d="M308.6,44.947a1.534,1.534,0,0,0,2.166-.119,10.749,10.749,0,0,0,0-14.316,1.534,1.534,0,0,0-2.285,2.046,7.653,7.653,0,0,1,0,10.223A1.534,1.534,0,0,0,308.6,44.947Z" transform="translate(-281.072 -26.934)" fill="#fff"/>
    <path id="Path_106331" data-name="Path 106331" d="M214.871,67.74a3.87,3.87,0,1,0-3.87-3.87A3.874,3.874,0,0,0,214.871,67.74Z" transform="translate(-193.182 -53.135)" fill="#fff"/>
  </g>
</svg>
