<svg xmlns="http://www.w3.org/2000/svg" width="125.751" height="32.8" viewBox="0 0 125.751 32.8">
  <path id="Path_105399" data-name="Path 105399" d="M114.243,31.143a2.029,2.029,0,0,1,1.622-2.368,6.564,6.564,0,0,0,5.388-4.322,10.345,10.345,0,0,1-5.271,1.335c-7.511-.258-9.418-5.913-9.388-8.867V8.844a2.029,2.029,0,0,1,4.059,0v8.1c.006.771.3,4.613,5.4,4.789a5.814,5.814,0,0,0,5.632-3.608V8.844a2.029,2.029,0,0,1,4.059,0v12.81a10.768,10.768,0,0,1-9.131,11.112,2.027,2.027,0,0,1-2.368-1.622Zm-23.835-5a2.029,2.029,0,1,1,0-4.059h9.383c.484-.106,1.26-.507,1.26-1.91a1.734,1.734,0,0,0-1.845-1.7l-7.306,0q-.071,0-.143-.005c-2.276-.16-5.653-1.823-5.632-5.748A5.691,5.691,0,0,1,91.3,6.96q.092-.008.185-.008h8.756a2.029,2.029,0,1,1,0,4.059H91.608a1.577,1.577,0,0,0-1.424,1.732c-.007,1.307,1.218,1.6,1.815,1.672h7.3c2.391.106,5.813,1.725,5.813,5.761a5.7,5.7,0,0,1-4.905,5.954,2.022,2.022,0,0,1-.244.015Zm-26.49-.186A9.655,9.655,0,0,1,56.8,23.067a11.472,11.472,0,0,1-2.75-7.623l-.057-13.4A2.029,2.029,0,0,1,56.015.009h.009A2.029,2.029,0,0,1,58.052,2.03l.02,4.785h5.566a2.029,2.029,0,1,1,0,4.059H58.089l.019,4.642a7.415,7.415,0,0,0,1.668,4.79,5.706,5.706,0,0,0,4.233,1.6,2.029,2.029,0,0,1-.044,4.058ZM80.583,23.9a9.359,9.359,0,1,1,0-14.9,2.029,2.029,0,0,1,4.055.12V23.87a2.029,2.029,0,0,1-4.058.026ZM69.626,16.444a5.3,5.3,0,1,0,5.3-5.3A5.306,5.306,0,0,0,69.626,16.444ZM48.166,23.87V14.158a2.929,2.929,0,0,0-2.931-3.034c-3.111,0-3.686,1.623-3.781,2.394V23.87a2.029,2.029,0,0,1-4.059,0V13.984a2.041,2.041,0,0,1-.017-.266c0-.127.006-.26.017-.4V9.114a2.029,2.029,0,0,1,3.687-1.17,9.5,9.5,0,0,1,4.235-.877,7.02,7.02,0,0,1,6.907,7.07V23.87a2.029,2.029,0,0,1-4.059,0ZM31.724,23.9a9.359,9.359,0,1,1,0-14.9,2.029,2.029,0,0,1,4.055.12V23.87a2.029,2.029,0,0,1-4.058.026ZM20.767,16.444a5.3,5.3,0,1,0,5.3-5.3A5.306,5.306,0,0,0,20.767,16.444ZM.036,23.87V17.5a2.029,2.029,0,0,1,2.029-2.029H4.9L.6,11.148A2.029,2.029,0,1,1,3.471,8.283l7.757,7.783a2.029,2.029,0,0,1-1.437,3.462h-5.7V23.87a2.029,2.029,0,1,1-4.059,0ZM8.2,11.043.6,3.467A2.029,2.029,0,0,1,2.029,0H18.29a2.029,2.029,0,0,1,0,4.059H6.942l4.125,4.109A2.029,2.029,0,1,1,8.2,11.043Z" transform="translate(0)" fill="#1c1c1c"/>
</svg>
