<svg xmlns="http://www.w3.org/2000/svg" width="31.762" height="34.705" viewBox="0 0 31.762 34.705">
  <path id="Path_106332" data-name="Path 106332" d="M17439.6,18312.254a16.015,16.015,0,0,1-3.475.387,15.885,15.885,0,1,1,13.143-6.969,5.91,5.91,0,1,1-9.668,6.582Zm.584-2.588a4.728,4.728,0,1,0,4.727-4.725A4.729,4.729,0,0,0,17440.186,18309.666Zm-10.273-3.318,3.135,4.9a15,15,0,0,0,1.494.244l.027,0c.234.023.475.037.686.047a.744.744,0,0,0,.092.014c.234.014.482.018.781.018s.574-.014.846-.027h.014l.2-.014c.176-.014.369-.037.566-.051l.092-.014h.01c.055,0,.115-.018.174-.018l.115-.02c.225-.027.418-.059.588-.092h.01a.09.09,0,0,0,.045-.014.316.316,0,0,0,.061,0c.1-.023.234-.047.377-.078a5.816,5.816,0,0,1-.217-1.582,5.9,5.9,0,0,1,2.313-4.693l-1.508-1.99h-7.373Zm-8.535-8.205a15.307,15.307,0,0,0,.275,1.793l0,.014a.338.338,0,0,0,.02.055c.045.234.109.479.2.781l.027.1c.07.248.156.516.258.809a14.494,14.494,0,0,0,.7,1.646l0,0c.133.271.268.52.4.75l.031.055c.125.221.258.432.451.73l5.23.828,2.564-3.416-1.553-6.242-5.379-1.787Zm27.023,6.752.115-.014.041-.061.018-.035c.135-.2.268-.414.391-.625l.029-.064c.133-.23.27-.479.4-.75l.006,0a13.666,13.666,0,0,0,.7-1.643c.105-.307.189-.568.262-.812l.029-.1.021-.078.033-.119c.045-.193.1-.391.137-.584a.208.208,0,0,0,.02-.064l0,0a14.184,14.184,0,0,0,.275-1.793l-3.227-3.879-5.383,1.787-1.557,6.242,1.576,2.078a5.934,5.934,0,0,1,6.113.523Zm-11.713-19.443.01,5.355,5.207,4.164,5.416-1.8,1.1-4.68c-.162-.248-.35-.492-.512-.707l-.041-.051c-.037-.061-.078-.1-.115-.152l-.014-.014c-.143-.18-.33-.414-.547-.648a.163.163,0,0,0-.051-.059c-.238-.268-.449-.488-.666-.7a.2.2,0,0,0-.041-.041c-.014-.014-.031-.027-.047-.041-.229-.221-.455-.428-.676-.611l-.041-.037a14.819,14.819,0,0,0-1.637-1.2l-.014-.01a14.338,14.338,0,0,0-1.811-.975Zm-8.48-1.213-.014.014a14.845,14.845,0,0,0-1.623,1.186l-.051.051c-.262.221-.477.418-.666.605a.384.384,0,0,0-.082.078c-.227.217-.445.447-.672.7a.708.708,0,0,0-.055.064c-.156.18-.326.377-.543.648l-.031.041-.033.041-.008.014a.3.3,0,0,0-.051.064c-.2.262-.391.516-.547.754l1.1,4.68,5.41,1.8,5.217-4.174v-5.346l-5.539-2.184A13.412,13.412,0,0,0,17428.207,18284.238Zm13.84,25.758.709-.707,1.355,1.355,3.2-3.2.709.707-3.912,3.912Z" transform="translate(-17420.246 -18280.873)" fill="#fff"/>
</svg>
