<svg xmlns="http://www.w3.org/2000/svg" width="40.272" height="28.19" viewBox="0 0 40.272 28.19">
  <g id="Group_60959" data-name="Group 60959" transform="translate(0 -0.94)">
    <path id="Icon_awesome-users" data-name="Icon awesome-users" d="M6.041,14.332A4.027,4.027,0,1,0,2.014,10.3,4.031,4.031,0,0,0,6.041,14.332Zm28.19,0A4.027,4.027,0,1,0,30.2,10.3,4.031,4.031,0,0,0,34.231,14.332Zm2.014,2.014H32.218a4.015,4.015,0,0,0-2.838,1.17A9.2,9.2,0,0,1,34.105,24.4h4.153a2.011,2.011,0,0,0,2.014-2.014V20.372A4.031,4.031,0,0,0,36.245,16.345Zm-16.109,0A7.048,7.048,0,1,0,13.088,9.3,7.044,7.044,0,0,0,20.136,16.345Zm4.833,2.014h-.522a9.73,9.73,0,0,1-8.621,0H15.3a7.251,7.251,0,0,0-7.249,7.249V27.42a3.021,3.021,0,0,0,3.02,3.02H29.2a3.021,3.021,0,0,0,3.02-3.02V25.608A7.251,7.251,0,0,0,24.969,18.359Zm-14.076-.843a4.015,4.015,0,0,0-2.838-1.17H4.027A4.031,4.031,0,0,0,0,20.372v2.014A2.011,2.011,0,0,0,2.014,24.4H6.16A9.227,9.227,0,0,1,10.892,17.516Z" transform="translate(0 -1.31)" fill="#fff"/>
  </g>
</svg>
