<svg xmlns="http://www.w3.org/2000/svg" width="11.973" height="11.973" viewBox="0 0 11.973 11.973">
  <g id="Group_69537" data-name="Group 69537" transform="translate(-118.514 -19.014)">
    <path id="Path_106348" data-name="Path 106348" d="M5.986,0A5.986,5.986,0,1,1,0,5.986,5.986,5.986,0,0,1,5.986,0Z" transform="translate(118.514 19.014)" fill="#343434"/>
    <path id="Path_106349" data-name="Path 106349" d="M-7.218-6.647h-.706l-1.2-3.442h.677l.873,2.781h.014l.873-2.781h.663Zm1.295.134h.6a.52.52,0,0,0,.243.38.932.932,0,0,0,.532.144.862.862,0,0,0,.507-.138.416.416,0,0,0,.2-.353.37.37,0,0,0-.143-.3,1.2,1.2,0,0,0-.467-.192l-.446-.1a1.431,1.431,0,0,1-.7-.341.815.815,0,0,1-.23-.6.9.9,0,0,1,.358-.739,1.44,1.44,0,0,1,.923-.284,1.412,1.412,0,0,1,.915.28.934.934,0,0,1,.359.736h-.587a.5.5,0,0,0-.208-.378.8.8,0,0,0-.484-.137.781.781,0,0,0-.471.131.408.408,0,0,0-.18.346.336.336,0,0,0,.14.279,1.256,1.256,0,0,0,.457.184l.4.091a1.591,1.591,0,0,1,.758.348.815.815,0,0,1,.236.613.935.935,0,0,1-.366.776,1.563,1.563,0,0,1-.991.287,1.539,1.539,0,0,1-.958-.275A.944.944,0,0,1-5.924-6.514Z" transform="translate(130.744 32.682)" fill="#fff"/>
  </g>
</svg>
